<?xml version="1.0" standalone="no"?>
<!DOCTYPE svg PUBLIC "-//W3C//DTD SVG 20010904//EN"
 "http://www.w3.org/TR/2001/REC-SVG-20010904/DTD/svg10.dtd">
<svg version="1.0" xmlns="http://www.w3.org/2000/svg"
 width="571.000000pt" height="800.000000pt" viewBox="0 0 571.000000 800.000000"
 preserveAspectRatio="xMidYMid meet">

<g transform="translate(0.000000,800.000000) scale(0.100000,-0.100000)"
fill="#000000" stroke="none">
<path d="M1256 7351 c-92 -170 -195 -527 -226 -781 -19 -160 -7 -462 25 -620
7 -36 11 -66 10 -68 -8 -8 -91 109 -118 166 -27 58 -30 73 -31 179 -1 101 -3
116 -20 129 -37 26 -44 17 -51 -61 -18 -185 46 -446 128 -523 13 -13 75 -48
138 -80 126 -63 143 -85 69 -90 -104 -8 -201 33 -420 174 l-115 75 152 -150
c170 -167 208 -191 373 -237 235 -64 287 -83 346 -127 65 -48 164 -148 242
-243 28 -34 72 -79 99 -100 321 -259 507 -420 535 -462 20 -31 23 -89 6 -127
-15 -33 -20 -32 -42 10 -34 62 -107 129 -166 152 -30 12 -129 54 -219 93 -135
59 -171 70 -198 65 l-33 -6 0 -62 c0 -109 18 -224 46 -294 65 -164 163 -288
251 -317 26 -9 100 -27 163 -41 188 -42 211 -61 234 -190 8 -44 25 -100 39
-125 l25 -45 -23 -202 c-27 -229 -42 -292 -155 -628 -88 -260 -109 -342 -135
-509 -22 -137 -16 -177 39 -291 86 -174 234 -372 402 -536 173 -167 292 -232
424 -233 93 0 150 25 266 118 173 139 316 317 374 466 44 116 54 191 47 374
-7 181 -24 274 -82 431 -96 260 -128 364 -164 537 -64 305 -75 482 -34 547 8
13 19 52 23 85 5 40 19 82 39 118 l31 55 78 7 c167 15 280 63 377 161 114 115
166 255 167 458 1 66 -3 122 -9 128 -6 6 -53 -9 -139 -47 -71 -31 -164 -69
-206 -85 -150 -55 -214 -96 -258 -166 l-28 -44 -16 23 c-27 38 -20 74 25 123
69 75 245 207 357 269 120 66 131 73 332 242 144 122 178 158 322 349 99 131
132 164 238 235 101 68 143 115 194 218 69 136 103 348 77 475 -22 102 -44 68
-71 -106 -19 -125 -33 -175 -68 -243 -20 -39 -58 -81 -66 -73 -3 2 3 36 11 74
13 55 16 135 17 365 0 266 -2 307 -22 415 -30 157 -63 281 -108 402 -33 90
-102 229 -109 221 -1 -2 8 -52 21 -113 61 -287 104 -613 103 -780 l0 -100 -33
90 c-18 50 -45 115 -61 145 -30 60 -86 142 -92 136 -2 -2 12 -55 31 -117 51
-172 70 -292 70 -459 0 -107 -4 -162 -17 -209 -22 -80 -64 -175 -86 -195 -16
-15 -19 -13 -38 22 -12 22 -25 75 -32 132 -29 230 -96 415 -200 552 -60 79
-85 99 -47 37 42 -66 103 -199 117 -250 11 -41 10 -59 -11 -153 -13 -58 -27
-106 -31 -106 -42 0 -123 68 -179 150 -42 62 -77 96 -87 87 -21 -22 78 -193
186 -322 28 -33 65 -80 82 -105 29 -43 31 -48 25 -120 -11 -152 -82 -339 -175
-462 -47 -61 -169 -173 -179 -163 -2 2 1 34 7 71 19 104 29 264 22 319 l-7 50
-16 -36 c-9 -20 -28 -78 -43 -130 -36 -126 -94 -243 -156 -312 -58 -65 -135
-107 -300 -162 -131 -44 -165 -66 -277 -174 -89 -86 -142 -165 -142 -213 0 -9
-15 -28 -33 -42 -31 -24 -43 -26 -125 -26 -106 0 -132 14 -132 73 0 62 -71
146 -235 281 -65 52 -167 108 -231 125 -48 13 -67 42 -113 173 -16 48 -40 106
-52 130 -33 65 -141 249 -144 246 -2 -2 10 -57 26 -123 35 -139 49 -275 29
-275 -21 0 -128 99 -223 205 -172 194 -280 369 -311 505 -22 97 -20 240 4 353
28 124 40 155 131 344 76 156 90 193 70 193 -13 0 -133 -143 -205 -243 -70
-98 -87 -154 -131 -413 -19 -111 -37 -209 -41 -218 -16 -42 -58 -1 -97 97 -85
211 -79 458 17 760 18 59 30 107 26 107 -14 0 -78 -81 -99 -125 -11 -23 -30
-80 -42 -128 -13 -48 -27 -83 -32 -80 -12 7 -3 301 13 421 6 45 26 142 46 215
44 168 66 280 62 315 l-3 27 -19 -34z"/>
</g>
</svg>
